<mxfile host="app.diagrams.net" agent="Mozilla/5.0 (Windows NT 10.0; Win64; x64) AppleWebKit/537.36 (KHTML, like Gecko) Chrome/128.0.0.0 Safari/537.36" version="24.7.7">
  <diagram name="PÃ¡gina-1" id="MiyC_y0jb_eijhB5hMvj">
    <mxGraphModel dx="167" dy="157" grid="0" gridSize="10" guides="1" tooltips="1" connect="1" arrows="1" fold="1" page="0" pageScale="1" pageWidth="827" pageHeight="1169" math="0" shadow="0">
      <root>
        <mxCell id="0" />
        <mxCell id="1" parent="0" />
        <mxCell id="aAaxQu1Zqau2Z3geJ1Tg-1" value="" style="html=1;aspect=fixed;strokeColor=none;shadow=1;fillColor=#f078ba;verticalAlign=top;labelPosition=center;verticalLabelPosition=bottom;shape=mxgraph.gcp2.lock;labelBackgroundColor=none;gradientColor=#385755;shadowOffsetX=10;shadowOpacity=25;strokeWidth=2;perimeterSpacing=1;rounded=1;" vertex="1" parent="1">
          <mxGeometry x="146" y="79" width="78" height="100" as="geometry" />
        </mxCell>
        <mxCell id="aAaxQu1Zqau2Z3geJ1Tg-2" value="" style="html=1;aspect=fixed;strokeColor=none;shadow=1;fillColor=#f078ba;verticalAlign=top;labelPosition=center;verticalLabelPosition=bottom;shape=mxgraph.gcp2.lock;labelBackgroundColor=none;gradientColor=#385755;shadowOffsetX=10;shadowOpacity=25;strokeWidth=2;perimeterSpacing=1;rounded=1;" vertex="1" parent="1">
          <mxGeometry x="143" y="79" width="78" height="100" as="geometry" />
        </mxCell>
      </root>
    </mxGraphModel>
  </diagram>
</mxfile>
